<svg width="650px" height="300.65px" fill="none" viewBox="-84.69 -50.187 760 423.794" xmlns="http://www.w3.org/2000/svg">
  <defs></defs>
  <path d="M 266.026 -9.911 L 266.026 35.942 L 202.914 35.942 L 201.984 35.942 L 201.984 36.875 L 201.984 148.564 L 155.454 148.564 L 155.454 36.875 L 155.454 35.942 L 154.525 35.942 L 64.962 35.942 C 63.801 35.942 62.622 36.079 61.569 36.38 C 60.521 36.67 59.526 37.146 58.811 37.874 C 58.068 38.637 57.678 39.639 57.83 40.838 C 57.976 41.98 58.619 43.215 59.726 44.544 L 90.86 81.648 C 99.801 92.297 100.516 109.009 94.127 123.139 C 87.755 137.222 74.398 148.564 55.425 148.564 L -76.19 148.564 L -76.19 102.492 L 37.163 102.492 C 39.043 102.492 40.567 102.31 41.712 101.905 C 42.871 101.491 43.768 100.79 44.094 99.687 C 44.404 98.64 44.111 97.473 43.546 96.316 C 42.968 95.132 42.023 93.795 40.783 92.31 L 12.484 58.602 C -7.761 34.474 8.494 -9.911 47.216 -9.911 L 266.026 -9.911 Z" style="stroke: rgb(255, 255, 0); stroke-width: 7px;"></path>
  <path d="M 71.616 260.039 L 90.489 174.857 L 136.665 174.857 L 98.651 333.331 L 50.857 333.331 L 31.798 247.342 L 29.984 247.342 L 10.922 333.331 L -36.871 333.331 L -74.917 174.857 L -29.199 174.857 L -10.327 260.004 L -8.512 260.008 L 10.362 174.857 L 50.92 174.857 L 69.807 260.039 L 71.616 260.039 Z" style="stroke: rgb(255, 255, 0); stroke-width: 7px;"></path>
  <path d="M 381.51 125.783 L 381.338 125.068 L 380.608 125.068 L 322.045 125.068 L 321.314 125.068 L 321.142 125.783 L 315.676 148.564 L 269.298 148.564 L 307.386 -9.846 L 395.821 -9.911 L 433.866 148.564 L 386.974 148.564 L 381.51 125.783 Z M 351.321 20.051 L 350.63 20.051 L 350.431 20.716 L 329.046 92.881 L 328.688 94.074 L 329.931 94.074 L 372.719 94.074 L 373.961 94.074 L 373.607 92.881 L 352.217 20.716 L 352.025 20.051 L 351.335 20.051 L 351.321 20.051 Z" style="stroke: rgb(255, 255, 0); stroke-width: 7px;"></path>
  <path d="M 510.429 96.952 L 510.429 96.95 C 508.677 95.203 507.113 93.909 505.739 93.138 C 504.381 92.384 503.024 92.037 501.816 92.511 C 500.603 92.992 499.866 94.177 499.435 95.642 C 498.998 97.129 498.798 99.115 498.798 101.561 L 498.798 148.564 L 452.361 148.564 L 452.449 -9.91 L 549.059 -9.78 C 549.059 -9.78 549.059 -9.78 549.059 -9.78 C 576.29 -9.739 593.252 6.018 598.855 24.962 C 604.471 43.954 598.682 66.153 580.274 79.132 C 575.584 82.449 567.172 86.722 562.176 88.874 L 560.925 89.415 L 561.884 90.382 L 571.712 100.263 C 571.763 100.311 571.812 100.364 571.863 100.413 C 572.541 101.1 573.111 101.673 573.864 102.021 C 574.69 102.401 575.65 102.482 577.06 102.482 L 666.81 102.482 L 666.81 148.554 L 575.271 148.554 L 575.029 148.554 C 568.663 148.554 565.562 148.554 562.712 147.352 C 559.812 146.131 557.119 143.637 551.718 138.238 L 510.429 96.952 Z M 499.722 28.484 L 498.794 28.484 L 498.794 29.411 L 498.794 69.584 L 498.794 70.512 L 499.722 70.512 L 537.92 70.512 C 551.943 70.512 559.765 60.004 560.169 49.533 C 560.361 44.3 558.712 39.026 555.021 35.054 C 551.313 31.076 545.633 28.484 537.938 28.484 L 499.727 28.484 L 499.722 28.484 Z" style="stroke: rgb(255, 255, 0); stroke-width: 7px;"></path>
  <path d="M 561.818 277.082 L 533.521 243.358 L 532.812 243.956 L 533.521 243.358 C 513.276 219.237 529.534 174.845 568.249 174.845 L 666.8 174.845 L 666.8 220.704 L 585.999 220.704 C 584.045 220.704 582.466 220.848 581.255 221.174 C 580.068 221.495 579.079 222.028 578.568 222.94 C 578.035 223.877 578.158 224.945 578.572 225.958 C 578.989 226.972 579.751 228.091 580.767 229.301 L 611.904 266.407 C 620.842 277.062 621.557 293.763 615.164 307.893 C 608.788 321.982 595.436 333.321 576.468 333.321 L 447.461 333.321 L 447.217 333.321 C 440.857 333.321 437.753 333.323 434.907 332.122 C 432.009 330.897 429.313 328.407 423.909 323.006 C 423.909 323.006 423.909 323.006 423.909 323.006 L 382.621 281.719 C 380.868 279.966 379.309 278.678 377.933 277.908 C 376.575 277.151 375.221 276.8 374.009 277.272 C 372.793 277.753 372.065 278.935 371.623 280.402 C 371.188 281.89 370.992 283.881 370.992 286.323 L 370.992 333.331 L 324.551 333.331 L 324.647 174.86 L 421.262 174.989 C 421.262 174.989 421.262 174.989 421.262 174.989 C 448.487 175.026 465.451 190.784 471.05 209.731 C 476.67 228.72 470.886 250.928 452.474 263.908 L 452.472 263.908 C 447.782 267.224 439.371 271.498 434.374 273.651 L 433.125 274.193 L 434.085 275.159 L 443.91 285.038 C 443.963 285.086 444.011 285.136 444.06 285.188 C 444.738 285.875 445.312 286.451 446.066 286.799 C 446.888 287.177 447.853 287.257 449.258 287.257 L 558.204 287.257 C 559.883 287.257 561.294 287.058 562.388 286.622 C 563.499 286.177 564.349 285.449 564.706 284.39 C 565.062 283.351 564.884 282.2 564.386 281.013 C 563.887 279.827 563.018 278.51 561.818 277.082 Z M 371.927 213.252 L 371.001 213.252 L 371.001 214.177 L 371.001 254.35 L 371.001 255.28 L 371.927 255.28 L 410.127 255.28 C 424.153 255.28 431.975 244.768 432.376 234.301 C 432.57 229.065 430.919 223.792 427.226 219.826 C 423.523 215.842 417.843 213.252 410.143 213.252 L 371.939 213.252 L 371.927 213.252 Z" style="stroke: rgb(255, 255, 0); stroke-width: 7px;"></path>
  <path d="M 253.06 310.55 L 252.887 309.837 L 252.157 309.837 L 193.595 309.837 L 192.863 309.837 L 192.694 310.55 L 187.223 333.331 L 140.859 333.331 L 178.934 174.924 L 267.374 174.857 L 305.412 333.331 L 258.529 333.331 L 253.06 310.55 Z M 222.881 204.817 L 222.185 204.817 L 221.989 205.484 L 200.598 277.649 L 200.252 278.843 L 201.492 278.843 L 244.278 278.843 L 245.522 278.843 L 245.166 277.649 L 223.779 205.484 L 223.587 204.817 L 222.885 204.817 L 222.881 204.817 Z" style="stroke: rgb(255, 255, 0); stroke-width: 7px;"></path>
</svg>